<?xml version="1.0" encoding="UTF-8"?>
<svg width="251px" height="40px" viewBox="0 0 251 40" version="1.1" xmlns="http://www.w3.org/2000/svg" xmlns:xlink="http://www.w3.org/1999/xlink">
    <!-- Generator: sketchtool 51.2 (57519) - http://www.bohemiancoding.com/sketch -->
    <title>04D8E6B4-5700-4B95-AEF0-9B05FA37F8FE</title>
    <desc>Created with sketchtool.</desc>
    <defs>
        <polygon id="path-1" points="0.326700798 0.349496208 16.2498703 0.349496208 16.2498703 30.8467477 0.326700798 30.8467477"></polygon>
    </defs>
    <g id="Page-5" stroke="none" stroke-width="1" fill="none" fill-rule="evenodd">
        <g id="Android" transform="translate(-54.000000, -363.000000)">
            <g id="Group" transform="translate(0.000000, 169.000000)">
                <g id="eyeContract-gray" transform="translate(54.000000, 194.000000)">
                    <path d="M5.80255888,17.9923413 L16.6431537,16.057988 C15.563503,13.8991876 13.2243433,12.5044092 10.8856846,12.7298583 C8.50143513,12.9092156 6.43231337,14.8435689 5.93782834,17.2724072 L5.80255888,17.9923413 Z M23.2102355,23.345004 C22.8054291,24.3795649 19.4317086,30.9020579 11.6051178,30.8118782 C7.10715768,30.8118782 2.56410778,27.9331437 0.809612774,23.3900938 C0.270037924,22.085495 0,20.6461277 0,19.2067605 C0,12.7744471 5.17280439,7.60164271 11.6051178,7.60164271 C17.8575729,7.60164271 22.9406986,12.549499 23.1651457,18.7122754 C23.1651457,18.9818124 23.2102355,19.1616707 23.1651457,19.3415289 L6.61217166,22.3555329 C7.42178443,24.1997066 9.26645908,25.593984 11.6051178,25.593984 C15.4733234,25.593984 18.082521,22.7603393 18.3971477,21.8154571 L23.2102355,23.345004 Z" id="Fill-1" fill="#2F2F38"></path>
                    <polygon id="Fill-3" fill="#2F2F38" points="44.2485445 8.05143872 32.5532471 39.1333549 26.795778 39.1333549 30.8889317 28.2481713 22.9275725 8.05143872 28.6850415 8.05143872 33.7230774 20.781297 38.4910754 8.05143872"></polygon>
                    <path d="M49.7680896,17.9923413 L60.6086844,16.057988 C59.5290337,13.8991876 57.1898741,12.5044092 54.8512154,12.7298583 C52.4669659,12.9092156 50.3978441,14.8435689 49.9033591,17.2724072 L49.7680896,17.9923413 Z M67.1757663,23.345004 C66.7709599,24.3795649 63.3972393,30.9020579 55.5706485,30.8118782 C51.0726884,30.8118782 46.5296385,27.9331437 44.7751435,23.3900938 C44.2355687,22.085495 43.9655307,20.6461277 43.9655307,19.2067605 C43.9655307,12.7744471 49.1383351,7.60164271 55.5706485,7.60164271 C61.8231036,7.60164271 66.9062293,12.549499 67.1306764,18.7122754 C67.1306764,18.9818124 67.1757663,19.1616707 67.1306764,19.3415289 L50.5777024,22.3555329 C51.3873152,24.1997066 53.2319898,25.593984 55.5706485,25.593984 C59.4388541,25.593984 62.0480517,22.7603393 62.3626784,21.8154571 L67.1757663,23.345004 Z" id="Fill-5" fill="#2F2F38"></path>
                    <path d="M71.8200679,15.4734236 C71.8200679,6.9268986 77.3976786,0.000100199601 86.7538164,0.000100199601 C92.5112854,0.000100199601 96.7842974,2.60879681 99.2587265,6.61227186 L94.0408323,9.94090259 C92.4661956,7.19693653 89.7222295,5.39785269 86.7538164,5.39785269 C81.4908323,5.39785269 78.072523,9.58068503 78.072523,15.4734236 C78.072523,21.3210723 81.4908323,25.5039046 86.7538164,25.5039046 C89.7673194,25.5039046 92.5112854,23.7048208 94.0408323,21.0059445 L99.2587265,24.2894854 C96.7842974,28.2929605 92.5112854,30.9021581 86.7538164,30.9021581 C77.3976786,30.9021581 71.8200679,23.9748587 71.8200679,15.4734236" id="Fill-7" fill="#7D7D8A"></path>
                    <path d="M117.738439,19.2573112 C117.715393,15.6591435 115.224431,13.0659778 111.851211,13.0880218 C108.432401,13.1100657 106.020095,15.7347942 106.043642,19.3329619 C106.067189,22.9311295 108.513061,25.5247962 111.931371,25.5027523 C115.305091,25.4807084 117.761986,22.8559798 117.738439,19.2573112 M100.061726,19.3720397 C100.020143,12.9848162 105.203469,7.73335509 111.590692,7.69227325 C118.023507,7.65069042 123.229377,12.8345168 123.27096,19.2217403 C123.312042,25.6089639 118.173806,30.860425 111.740992,30.9020078 C105.354269,30.9430896 100.102808,25.7592633 100.061726,19.3720397" id="Fill-9" fill="#7D7D8A"></path>
                    <path d="M147.515756,17.9923413 L147.515756,30.5418403 L141.623519,30.5418403 L141.623519,18.1271098 C141.623519,15.1136068 139.689165,12.9993952 136.945199,12.9993952 C134.201734,12.9993952 132.222792,15.1586966 132.222792,18.1721996 L132.222792,30.5418403 L126.464822,30.5418403 L126.464822,8.05153892 L132.222792,8.05153892 L132.222792,10.300519 C133.841517,8.68129341 136.000818,7.69182236 138.249798,7.69182236 C143.78282,7.69182236 147.515756,12.1446926 147.515756,17.9923413" id="Fill-11" fill="#7D7D8A"></path>
                    <path d="M165.547326,28.202881 C165.547326,28.202881 163.117986,30.9022583 159.205192,30.9022583 C155.336485,30.9022583 152.367571,29.0124938 152.367571,24.3346754 L152.367571,13.2245437 L149.624106,13.2245437 L149.624106,8.05123832 L152.367571,8.05123832 L152.367571,0.53977525 L158.125541,0.405006786 L158.125541,8.05123832 L163.433114,8.05123832 L163.433114,13.2245437 L158.125541,13.2245437 L158.125541,22.5801804 C158.125541,24.4243541 159.205192,25.5490946 160.4642,25.5490946 C161.993747,25.5490946 162.941134,25.4949868 164.075393,24.6167373 L165.547326,28.202881 Z" id="Fill-13" fill="#7D7D8A"></path>
                    <g id="Group-17" transform="translate(234.467066, 0.055511)">
                        <mask id="mask-2" fill="white">
                            <use xlink:href="#path-1"></use>
                        </mask>
                        <g id="Clip-16"></g>
                        <path d="M16.2499204,28.1473705 C16.2499204,28.1473705 13.820581,30.8467477 9.90778663,30.8467477 C6.03908004,30.8467477 3.07016587,28.9569832 3.07016587,24.2791649 L3.07016587,13.1690331 L0.326700798,13.1690331 L0.326700798,7.99572774 L3.07016587,7.99572774 L3.07016587,0.484264671 L8.82813593,0.349496208 L8.82813593,7.99572774 L14.1357088,7.99572774 L14.1357088,13.1690331 L8.82813593,13.1690331 L8.82813593,22.5246699 C8.82813593,24.3688435 9.90778663,25.493584 11.1667946,25.493584 C12.6963415,25.493584 13.6437287,25.4394762 14.7779882,24.5612267 L16.2499204,28.1473705 Z" id="Fill-15" fill="#7D7D8A" mask="url(#mask-2)"></path>
                    </g>
                    <path d="M183.989313,8.32147665 L182.414676,14.3489836 C181.380616,13.5393709 180.300965,12.999295 179.535941,12.999295 C176.792476,12.999295 174.813534,15.1585964 174.813534,18.1720994 L174.813534,30.5422411 L169.055564,30.5422411 L169.055564,8.05143872 L174.813534,8.05143872 L174.813534,10.3004188 C176.432259,8.68119321 178.636149,7.69172216 180.88563,7.69172216 C182.01037,7.69172216 183.04443,7.91667026 183.989313,8.32147665" id="Fill-18" fill="#7D7D8A"></path>
                    <path d="M201.846685,19.2967397 C201.846685,15.6980711 199.373258,13.0893745 195.999036,13.0893745 C192.625817,13.0893745 190.151388,15.6980711 190.151388,19.2967397 C190.151388,22.8954084 192.625817,25.504105 195.999036,25.504105 C199.373258,25.504105 201.846685,22.8954084 201.846685,19.2967397 Z M207.829102,8.05133852 L207.829102,30.5421409 L202.071633,30.5421409 L202.071633,29.0576838 C200.272048,30.2270132 198.113248,30.9023585 195.819178,30.9023585 C189.386865,30.9023585 184.214561,25.6844643 184.214561,19.2967397 C184.214561,12.9095162 189.386865,7.69162196 195.819178,7.69162196 C198.113248,7.69162196 200.272048,8.36646627 202.071633,9.53579561 L202.071633,8.05133852 L207.829102,8.05133852 Z" id="Fill-20" fill="#7D7D8A"></path>
                    <path d="M210.836243,19.2967397 C210.836243,12.9095162 216.008546,7.69162196 222.44136,7.69162196 C226.759462,7.69162196 230.537488,10.0307816 232.516931,13.5843605 L227.344127,16.1028774 C226.129207,14.2587038 224.285534,13.0893745 222.44136,13.0893745 C219.06764,13.0893745 216.593712,15.6980711 216.593712,19.2967397 C216.593712,22.8954084 219.06764,25.504105 222.44136,25.504105 C224.285534,25.504105 226.129207,24.3347756 227.344127,22.490602 L232.516931,25.009119 C230.537488,28.5631988 226.759462,30.9023585 222.44136,30.9023585 C216.008546,30.9023585 210.836243,25.6844643 210.836243,19.2967397" id="Fill-22" fill="#7D7D8A"></path>
                </g>
            </g>
        </g>
    </g>
</svg>